<svg xmlns="http://www.w3.org/2000/svg" xmlns:xlink="http://www.w3.org/1999/xlink" fill="#a2834b" height="500.8" preserveAspectRatio="xMidYMid meet" version="1" viewBox="0.0 0.0 124.0 500.8" width="124" zoomAndPan="magnify"><g id="change1_1"><path d="M124.03,130.83l-1.36-4.13l-0.89-2.75l-8.68,0l9.57-6.96v-3.29l-7.18-5.21l-2.83-8.58l10.02-7.28v-3.2l-0.02,0.01V77.49 l0.02,0.01v-3.2l-10.01-7.25l2.82-8.6l7.18-5.21v-3.27l-9.51-6.94h8.69l0.82-2.52l1.36-4.44l-1.36-4.44v0.04l-4.26-13.13l2.17-1.58 l2.09-1.52v-3.31l-3.13-2.27h-3.95l-1.23-3.76l-3.2-2.33L112.38,0h-2.72l-0.7,2.16l-1.49-1.08L105.97,0h-4.4L90.91,7.74L88,9.85 h-4.58L80.22,0H77.5l-4.52,13.84L62.05,5.98l-10.86,7.85L46.7,0h-2.76l-3.19,9.81h-4.58l-0.96-0.7L22.68,0h-4.54l-1.42,1.03 l-1.49,1.08L14.54,0h-2.72l1.21,3.71l-3.2,2.33L8.6,9.81H4.64l-3.2,2.33l-0.08-0.06v3.31l0.08-0.05l2.17,1.58l2.17,1.58l-3.22,9.9 L0,36.26l1.44,3.96l0.89,2.75h8.68l-9.6,6.97l-0.05-0.04v3.23l7.27,5.27l2.82,8.6L1.36,74.33v3.11V89.4v2.88v0.28l10.08,7.32 l-2.83,8.58l-7.24,5.25v3.24l0.02-0.02l9.56,6.97H2.26l-0.89,2.76L0,130.83l1.36,4.18v0.02l4.34,13.36l-2.17,1.58l-2.17,1.58v3.2 l3.2,2.33h3.96l1.22,3.77l3.2,2.33l-1.22,3.76h0.09l1.21,3.71l-3.2,2.33l-1.22,3.76H4.64l-3.2,2.33L1.36,179v3.31l0.08-0.05 l2.17,1.58l2.17,1.58l-3.22,9.9L0,203.18l1.44,3.96l0.89,2.75l8.68,0l-9.6,6.97l-0.05-0.04v3.23l7.27,5.27l2.82,8.6l-10.09,7.32 v3.11v11.95v2.88v0.27l10.08,7.32l-2.83,8.57l-7.24,5.25v3.24l0.02-0.02l9.56,6.97H2.26l-0.89,2.75L0,297.75l1.36,4.18v0.02 l4.34,13.36l-2.17,1.58l-2.17,1.58v3.2l3.2,2.33h3.96l1.22,3.76l3.2,2.33l-1.22,3.76h0.09l1.21,3.71l-3.2,2.33l-1.22,3.77H4.64 l-3.2,2.33l-0.08-0.06v3.32l0.08-0.06l2.17,1.58l2.17,1.57l-3.22,9.9L0,370.11l1.44,3.96l0.89,2.75l8.68,0l-9.6,6.97l-0.05-0.04 v3.23l7.27,5.27l2.82,8.6l-10.09,7.32v3.11v11.95v2.88v0.27l10.08,7.32l-2.83,8.58l-7.24,5.25v3.24l0.02-0.02l9.56,6.97H2.26 l-0.89,2.75L0,464.67l1.36,4.18v0.02l4.34,13.36l-2.17,1.58l-2.17,1.58v3.2l3.2,2.33h3.96l1.22,3.77l3.2,2.33l-1.22,3.76h2.72 l0.7-2.16l1.49,1.08l1.49,1.08h4.41l12.28-8.92l1.29-0.93h4.58l3.2,9.86h2.72v0l4.53-13.86l10.92,7.88l10.87-7.82l4.48,13.8h2.76 l3.18-9.8h4.58l6.84,4.97l6.65,4.83h4.55l1.41-1.03l1.49-1.08l0.69,2.11h2.72l-1.2-3.71l3.2-2.33l1.22-3.76h3.96l3.2-2.33v-3.2 l-2.17-1.58l-2.17-1.58l4.34-13.36l1.36-4.25l-1.36-4.13l-0.89-2.75l-8.68,0l9.57-6.95v-3.29l-7.18-5.21l-2.83-8.58l10.02-7.28v-3.2 l-0.02,0.01v-11.97l0.02,0.01v-3.2l-10.01-7.26l2.82-8.6l7.18-5.21v-3.27l-9.51-6.93h8.69l0.82-2.53l1.36-4.44l-1.36-4.44v0.04 l-4.26-13.13l2.17-1.58l2.09-1.52v-3.31l-3.13-2.27h-3.95l-1.23-3.76l-3.2-2.33l1.22-3.77h-0.09l-1.2-3.71l3.2-2.33l1.22-3.76h3.96 l3.2-2.33v-3.2l-2.17-1.58l-2.17-1.58l4.34-13.36l1.36-4.25l-1.36-4.13l-0.89-2.75l-8.68,0l9.57-6.95v-3.29l-7.18-5.21l-2.83-8.58 l10.02-7.28v-3.2l-0.02,0.01v-11.97l0.02,0.01v-3.2l-10.01-7.26l2.82-8.6l7.18-5.21v-3.27l-9.51-6.94h8.69l0.82-2.53l1.36-4.44 l-1.36-4.44v0.04l-4.26-13.13l2.17-1.58l2.09-1.52v-3.31l-3.13-2.27h-3.95l-1.23-3.76l-3.2-2.33l1.22-3.76h-0.09l-1.2-3.71l3.2-2.33 l1.22-3.76h3.96l3.2-2.33v-3.2l-2.17-1.58l-2.17-1.58l4.34-13.36L124.03,130.83z M113.29,110.1l7.23,5.24l-11.83,8.6l-14.54-0.03 l4.5-13.86v0h0.01l11.79-8.54L113.29,110.1z M100.35,262.83h2.9l2.68-8.26l3.66,11.28l-9.58,6.94l2.68-8.26L100.35,262.83z M103.25,237.94h-2.89l2.34-1.7l-2.68-8.26l9.6,6.97l-3.68,11.25L103.25,237.94z M101.37,240.53l3.21,9.86l-3.21,9.86h-4.58 l-0.96-0.7l-12.6-9.16l12.28-8.92l1.28-0.94H101.37z M100.35,429.75h2.9l2.68-8.25l3.66,11.28l-9.58,6.94l2.68-8.26L100.35,429.75z M103.25,404.86h-2.89l2.34-1.7l-2.68-8.26l9.6,6.97l-3.68,11.25L103.25,404.86z M101.37,407.45l3.21,9.86l-3.21,9.86h-4.58 l-0.96-0.7l-12.6-9.16l12.28-8.92l1.28-0.94H101.37z M98.99,468.24l-2.34-1.7l-7.02,5.1l3.67-11.28h0.01l0-0.01l11.82,0.02 l-7.03,5.11L98.99,468.24z M91.43,457.77h-0.01l0,0.01l-11.82-0.02l7.03-5.11l-0.89-2.75l2.34,1.7l7.02-5.1L91.43,457.77z M18.91,460.33h11.85l0,0.01h0.02l3.64,11.25l-7.03-5.11l-2.34,1.7l0.89-2.76L18.91,460.33z M32.66,457.74h-0.01l-3.64-11.26 l7.03,5.11l2.34-1.7l-0.89,2.75l7.02,5.1L32.66,457.74L32.66,457.74z M23.75,404.86L23.75,404.86h-2.89l-2.68,8.26l-3.67-11.28 l9.59-6.94l-2.69,8.27L23.75,404.86z M20.85,429.75h2.89l-2.34,1.7l2.68,8.25l-9.6-6.97l3.68-11.25L20.85,429.75z M22.74,427.16 l-3.2-9.86l3.2-9.86h4.58l6.84,4.97l6.72,4.88l-10.66,7.74l-2.91,2.11H22.74z M23.75,237.94L23.75,237.94h-2.89l-2.68,8.25 l-3.67-11.28l9.59-6.94l-2.69,8.27L23.75,237.94z M20.85,262.83h2.89l-2.34,1.7l2.68,8.25l-9.6-6.97l3.68-11.25L20.85,262.83z M22.74,260.24l-3.2-9.86l3.2-9.86h4.58l6.84,4.97l6.72,4.88l-10.66,7.74l-2.91,2.11H22.74z M23.75,71.02L23.75,71.02h-2.89 l-2.68,8.26l-3.67-11.28l9.59-6.94l-2.69,8.27L23.75,71.02z M20.85,95.91h2.89l-2.34,1.7l2.68,8.25l-9.6-6.97l3.68-11.25 L20.85,95.91z M22.74,93.32l-3.2-9.86l3.2-9.86h4.58l6.84,4.97l6.72,4.88l-10.66,7.74l-2.91,2.11H22.74z M25.11,32.53l2.34,1.7 l7.02-5.1L30.82,40.4H30.8l0,0.01l-11.82-0.02l7.03-5.11L25.11,32.53z M32.68,43.01h0.02l0-0.01l11.82,0.02l-7.03,5.11l0.9,2.75 l-2.34-1.7l-7.02,5.1L32.68,43.01z M105.19,40.44l-11.85,0v0h-0.01l-3.64-11.26l7.03,5.11l2.34-1.7l-0.89,2.75L105.19,40.44z M91.46,43.03l3.64,11.26l-7.03-5.11l-2.34,1.7l0.89-2.75l-7.02-5.1h11.85v0H91.46z M100.35,95.91h2.9l2.68-8.25l3.66,11.28 l-9.58,6.94l2.68-8.26L100.35,95.91z M103.25,71.02h-2.89l2.34-1.7l-2.68-8.26l9.6,6.97l-3.68,11.25L103.25,71.02z M101.37,73.61 l3.21,9.86l-3.21,9.86h-4.58l-0.96-0.7l-12.6-9.16l12.28-8.92l1.28-0.94H101.37z M84.36,154.53h-2.89l-2.68,8.26l-3.67-11.28 l9.59-6.94l-2.68,8.27L84.36,154.53z M84.78,189.32l-9.6-6.97l3.67-11.25l2.69,8.27h2.9l-2.34,1.7L84.78,189.32z M84.36,321.45 h-2.89l-2.68,8.26l-3.67-11.28l9.59-6.94l-2.68,8.27L84.36,321.45z M84.78,356.25l-9.6-6.98l3.67-11.25l2.69,8.27h2.9l-2.34,1.7 L84.78,356.25z M59.88,434.27l2.17-1.58l2.17,1.58l2.17,1.58l-3.22,9.9l-1.12,3.46l-4.34-13.36L59.88,434.27z M56.87,433.26 l-0.57-1.75l-0.57-1.75h2.27l1.84,1.34l-1.49,1.08L56.87,433.26z M65.75,432.17l-1.49-1.08l1.84-1.34h2.27l-0.57,1.75l-0.56,1.75 L65.75,432.17z M65.26,427.16l-3.2,2.33l-3.2-2.33h-3.96l-1.22-3.76l-3.2-2.33l1.22-3.76l-1.22-3.76l3.2-2.33l1.22-3.76h3.96 l3.2-2.32l3.2,2.32h3.96l1.22,3.76l3.2,2.33l-1.22,3.76l1.22,3.76l-3.2,2.33l-1.22,3.76H65.26z M39.74,346.24h2.9l2.68-8.26 l3.67,11.28l-9.59,6.94l2.68-8.26L39.74,346.24z M39.33,311.44l9.6,6.97l-3.68,11.25l-2.68-8.26h-2.9l2.34-1.7L39.33,311.44z M39.74,179.32h2.9l2.68-8.25l3.67,11.28l-9.59,6.94l2.68-8.26L39.74,179.32z M39.33,144.52l9.6,6.97l-3.68,11.25l-2.68-8.26h-2.9 l2.34-1.7L39.33,144.52z M64.22,66.5l-2.17,1.58l-2.17-1.58l-2.17-1.58l4.34-13.36l4.34,13.36L64.22,66.5z M67.24,67.52l0.56,1.75 l0.57,1.75H66.1l-1.84-1.34l1.49-1.08L67.24,67.52z M58.36,68.6l1.49,1.08l-1.84,1.34h-2.27l1.14-3.5L58.36,68.6z M58.85,73.61 l3.2-2.33l3.2,2.33h3.96l1.22,3.77l3.2,2.33l-1.22,3.76l1.22,3.76l-3.2,2.33l-1.22,3.77h-3.96l-3.2,2.33l-3.2-2.33h-3.96l-1.22-3.77 l-3.2-2.33l1.22-3.76l-1.22-3.76l3.2-2.33l1.22-3.77H58.85z M72.08,150.54l-10.03,7.21l-10.03-7.25l2.71-8.49l7.33-5.33l7.33,5.33 l2.7,8.48l-0.03,0.02L72.08,150.54z M62.03,133.46l-9.56-6.97h8.69l0.89-2.75l0.89,2.75h8.68L62.03,133.46z M59.88,100.42l2.17-1.58 l2.17,1.58l2.17,1.58l-3.22,9.9l-1.12,3.45L57.71,102L59.88,100.42z M56.87,99.41l-0.57-1.75l-0.57-1.75h2.27l1.84,1.34l-1.49,1.08 L56.87,99.41z M64.25,97.25l1.84-1.34h2.27l-0.57,1.75l-0.56,1.75l-1.49-1.08L64.25,97.25z M64.83,123.9l-1.41-4.35l0.81-2.49 l4.37-13.45l13.56,9.85l1.41,4.35l-8.38,6.09H64.83z M69.44,101.01l0.83-2.55l0.83-2.55h5.36l4.34,13.36L69.44,101.01z M74.48,77.11 l-1.84-1.34l-0.7-2.16h3.68L74.48,77.11z M75.84,81.3l1.49,1.08l1.49,1.08l-1.49,1.08l-1.49,1.08l-0.7-2.16L75.84,81.3z M75.62,93.32h-3.68l0.7-2.16l1.84-1.34L75.62,93.32z M76.68,88.22l2.17-1.58l2.17-1.58l11.15,8.1l0.21,0.15H78.34L76.68,88.22z M78.85,80.29l-2.17-1.58l1.66-5.1h14.05l-0.57,0.42l-10.79,7.84L78.85,80.29z M76.46,71.02H71.1l-0.83-2.55l-0.83-2.55l8.59-6.24 l2.78-2.02L76.46,71.02z M48.97,83.46l-0.7,2.16l-1.49-1.08l-1.49-1.08l1.49-1.08l1.49-1.08L48.97,83.46z M48.49,73.61h3.68 l-0.71,2.16l-1.84,1.34l-0.57-1.75L48.49,73.61z M49.62,89.82l1.84,1.34l0.7,2.16h-3.68L49.62,89.82z M53.01,71.02h-5.36l-1-3.09 L43.3,57.66l1.9,1.38l9.46,6.88L53.01,71.02z M46.59,76.16l0.83,2.55l-2.17,1.58l-2.17,1.58l-5.44-3.96l-5.92-4.3h14.05L46.59,76.16 z M45.25,86.64l2.17,1.58l-1.66,5.1H31.72l2.29-1.66l9.07-6.59L45.25,86.64z M47.65,95.91h5.36l0.83,2.55l0.83,2.55l-11.36,8.25 L47.65,95.91z M55.51,103.6l5.18,15.95l-1.41,4.35H48.91l-8.38-6.09l1.41-4.35L55.51,103.6z M59.85,135.08l-7.33,5.33l-2.72,8.52 l-11.84-8.6l-4.47-13.84h14.57L59.85,135.08z M49.82,184.94l2.71,8.49l7.35,5.35l-11.8,8.57l-14.54-0.02l4.5-13.86l0,0h0 L49.82,184.94z M75.14,250.38l0.7-2.16l1.49,1.08l1.49,1.08l-1.49,1.08l-1.49,1.08L75.14,250.38z M75.62,260.24h-3.68l0.7-2.16 l1.84-1.34L75.62,260.24z M74.48,244.03l-1.84-1.34l-0.7-2.16h3.68L74.48,244.03z M73.64,246.62l-1.22,3.76l1.22,3.76l-3.2,2.33 l-1.22,3.77h-3.96l-3.2,2.33l-3.2-2.33h-3.96l-1.22-3.77l-3.2-2.33l1.22-3.76l-1.22-3.76l3.2-2.33l1.22-3.76h3.96l3.2-2.33l3.2,2.33 h3.96l1.22,3.76L73.64,246.62z M72.08,317.46l-10.03,7.21l-10.03-7.24l2.71-8.5l7.33-5.33l7.33,5.33l2.7,8.48l-0.03,0.02 L72.08,317.46z M62.03,300.38l-9.56-6.97h8.69l0.89-2.75l0.89,2.75h8.68L62.03,300.38z M62.05,282.28l-4.34-13.35l2.17-1.58 l2.17-1.58l2.17,1.58l2.17,1.58l-3.22,9.9L62.05,282.28z M56.87,266.33l-0.57-1.75l-0.57-1.75h2.27l1.84,1.34l-1.49,1.08 L56.87,266.33z M65.75,265.25l-1.49-1.08l1.84-1.34h2.27l-0.57,1.75l-0.56,1.75L65.75,265.25z M48.97,250.38l-0.7,2.16l-1.49-1.08 l-1.49-1.08l1.49-1.08l1.49-1.08L48.97,250.38z M48.49,240.53h3.68l-0.71,2.16l-1.84,1.34l-0.57-1.75L48.49,240.53z M49.62,256.74 l1.84,1.34l0.7,2.16h-3.68L49.62,256.74z M55.73,237.94l1.14-3.5l1.49,1.08l1.49,1.08l-1.84,1.34H55.73z M66.1,237.94l-1.84-1.34 l1.49-1.08l1.49-1.08l0.56,1.75l0.57,1.75H66.1z M64.22,233.42L62.05,235l-2.17-1.58l-2.17-1.58l4.34-13.36l4.34,13.36L64.22,233.42 z M62.05,210.11l-0.89-2.75h-8.68l9.6-6.98l9.57,6.98h-8.69L62.05,210.11z M62.07,197.17l-7.33-5.34l-2.71-8.5l10.03-7.24 l10.05,7.23l-2.71,8.51L62.07,197.17z M48.91,209.95l10.36,0l1.41,4.35l-5.18,15.95l-13.56-9.86l-1.41-4.35L48.91,209.95z M45.21,225.96l9.46,6.88l-1.66,5.1h-5.36l-1-3.09l-3.34-10.27L45.21,225.96z M46.59,243.08l0.83,2.55l-2.17,1.58l-2.17,1.58 l-5.44-3.96l-5.92-4.3h14.05L46.59,243.08z M45.25,253.56l2.17,1.58l-1.66,5.1H31.72l2.29-1.66l9.07-6.59L45.25,253.56z M47.65,262.83h5.36l0.83,2.55l0.83,2.55l-11.36,8.25L47.65,262.83z M55.51,270.52l5.18,15.95l-1.41,4.35H48.91l-8.38-6.09 l1.41-4.36L55.51,270.52z M59.85,302.01l-7.33,5.34l-2.72,8.51l-11.84-8.6l-4.47-13.84h14.57L59.85,302.01z M49.82,351.86l2.71,8.49 l7.35,5.35l-11.8,8.58l-14.54-0.02l4.5-13.86l0,0l0,0L49.82,351.86z M64.22,400.35l-2.17,1.58l-2.17-1.58l-2.17-1.58l4.34-13.36 l4.34,13.36L64.22,400.35z M67.24,401.36l0.56,1.75l0.57,1.75H66.1l-1.84-1.34l1.49-1.08L67.24,401.36z M59.85,403.52l-1.84,1.34 h-2.27l1.14-3.5l1.49,1.08L59.85,403.52z M62.05,377.03l-0.89-2.75l-8.68,0l9.6-6.98l9.57,6.98h-8.69L62.05,377.03z M62.07,364.1 l-7.33-5.34l-2.71-8.5l10.03-7.24l10.05,7.23l-2.71,8.51L62.07,364.1z M48.91,376.87h10.36l1.41,4.35l-5.18,15.95l-13.56-9.86 l-1.41-4.35L48.91,376.87z M45.21,392.88l9.46,6.88l-1.66,5.1h-5.36l-1-3.09l-3.34-10.27L45.21,392.88z M49.62,423.66l1.84,1.34 l0.7,2.16h-3.68L49.62,423.66z M48.26,419.47l-1.49-1.08l-1.49-1.08l1.49-1.08l1.49-1.08l0.7,2.16L48.26,419.47z M49.05,409.2 l-0.57-1.75h3.68l-0.71,2.17l-1.84,1.34L49.05,409.2z M46.59,410l0.83,2.55l-2.17,1.58l-2.17,1.58l-5.44-3.96l-5.92-4.3h14.05 L46.59,410z M45.25,420.49l2.17,1.58l-1.66,5.1H31.72l2.29-1.66l9.07-6.59L45.25,420.49z M47.65,429.75h5.36l0.83,2.55l0.83,2.55 l-11.36,8.25L47.65,429.75z M75.14,417.31l0.7-2.16l1.49,1.08l1.49,1.08l-1.49,1.08l-1.49,1.08L75.14,417.31z M75.62,427.16h-3.68 l0.7-2.16l1.84-1.34L75.62,427.16z M74.48,410.95l-1.84-1.34l-0.7-2.17h3.68L74.48,410.95z M70.27,432.3l0.83-2.55h5.36l4.34,13.36 l-11.36-8.25L70.27,432.3z M76.68,422.06l2.17-1.58l2.17-1.58l11.15,8.11l0.21,0.15H78.34L76.68,422.06z M78.85,414.13l-2.17-1.58 l1.66-5.1h14.05l-0.57,0.42l-10.79,7.84L78.85,414.13z M76.46,404.86H71.1l-0.83-2.55l-0.83-2.55l8.59-6.24l2.78-2.01L76.46,404.86z M68.6,397.17l-5.18-15.95l1.41-4.35h10.36l8.38,6.09l-1.41,4.35L68.6,397.17z M64.27,365.7l7.34-5.34l2.71-8.5l11.82,8.59 l4.47,13.84H76.04L64.27,365.7z M72.97,347.68l-10.92-7.86l-10.86,7.85l-4.49-13.83h-0.09v0l4.53-13.86l10.92,7.89l10.87-7.82 l4.48,13.8h0.09L72.97,347.68z M74.31,315.82l-2.7-8.48l-7.37-5.36l11.79-8.57h0l14.54,0.02l-4.51,13.87L74.31,315.82z M75.19,290.82H64.83l-1.41-4.35l0.81-2.49l4.37-13.46l13.56,9.86l1.41,4.36L75.19,290.82z M69.44,267.93l0.83-2.55l0.83-2.55h5.36 l4.34,13.35L69.44,267.93z M76.68,255.14l2.17-1.58l2.17-1.58l11.15,8.1l0.21,0.15H78.34L76.68,255.14z M78.85,247.21l-2.17-1.58 l1.66-5.1h14.05l-0.57,0.42l-10.79,7.84L78.85,247.21z M76.46,237.94H71.1l-0.83-2.55l-0.83-2.55l8.59-6.24l2.78-2.02L76.46,237.94z M68.6,230.25l-5.18-15.95l1.41-4.35l10.36,0l8.38,6.09l-1.41,4.35L68.6,230.25z M64.27,198.78l7.34-5.34l2.71-8.51l11.82,8.59 l4.47,13.84H76.04L64.27,198.78z M72.97,180.76l-10.92-7.85l-10.86,7.84l-4.49-13.83h-0.09v0l4.53-13.86l10.92,7.89l10.87-7.82 l4.48,13.8h0.09L72.97,180.76z M74.31,148.9l-2.7-8.48l-7.37-5.36l11.79-8.57h0l14.54,0.02l-4.51,13.87L74.31,148.9z M79.59,123.91 l7.03-5.11l-0.89-2.75l2.34,1.7l7.02-5.1l-3.66,11.27h-0.01l0,0.01L79.59,123.91z M88.07,114.55l-3.7-2.69l-0.27-0.81l-4.92-15.14 h16.77l3.7,2.69l-3.2,9.86L88.07,114.55z M95.95,71.02H79.18l5.18-15.95l3.7-2.69l8.38,6.09l3.2,9.86L95.95,71.02z M83.58,49.12 l-1.41,4.35L68.6,63.32l-5.18-15.95l1.41-4.35l10.36,0L83.58,49.12z M62.95,40.43l-0.89,2.75l-0.89-2.75l-8.68,0l9.6-6.97l9.57,6.97 H62.95z M59.28,43.02l1.41,4.35l-5.18,15.95l-13.56-9.86l-1.41-4.35l8.38-6.09L59.28,43.02z M36.04,52.38l3.7,2.69l3.8,11.71 l1.38,4.24H28.15l-3.7-2.69l3.2-9.86L36.04,52.38z M28.15,95.91h16.77l-5.18,15.95l-3.7,2.69l-8.38-6.09l-3.2-9.86L28.15,95.91z M36.04,117.75l2.34-1.7l-0.89,2.75l7.02,5.1H32.66l0-0.01h-0.01l-3.64-11.25L36.04,117.75z M30.76,126.49h0.02l3.64,11.26 l-7.03-5.11l-2.34,1.7l0.89-2.75l-7.02-5.1L30.76,126.49L30.76,126.49z M27.38,135.84l8.38,6.09l3.2,9.86l-3.7,2.69H18.5l5.18-15.95 L27.38,135.84z M31.7,157.07l-0.58,0.42l-10.79,7.84l-2.17-1.58L16,162.17l1.66-5.1H31.7z M34.82,158l1.29-0.94h4.58l3.2,9.85h0.06 l-3.19,9.81h-4.58l-0.96-0.7l-12.53-9.11h-0.14L34.82,158z M20.41,168.47l11.15,8.1l0.21,0.15H17.73l-1.66-5.1l2.17-1.58 L20.41,168.47z M35.34,179.32l3.7,2.69l-3.2,9.86l-8.38,6.09l-3.7-2.69l-0.27-0.81l-4.91-15.14H35.34z M26.01,202.21l-0.89-2.75 l2.34,1.7l7.02-5.1l-3.66,11.27H30.8l0,0.01l-11.82-0.02L26.01,202.21z M32.68,209.93h0.02l0-0.01l11.82,0.02l-7.03,5.11l0.9,2.75 l-2.34-1.7l-7.02,5.1L32.68,209.93z M36.04,219.3l3.7,2.69l3.8,11.71l1.38,4.24H28.15l-3.7-2.69l3.2-9.86L36.04,219.3z M28.15,262.83h16.77l-5.18,15.95l-3.7,2.69l-8.38-6.09l-3.2-9.86L28.15,262.83z M36.04,284.67l2.34-1.7l-0.89,2.75l7.02,5.1H32.66 l0-0.01h-0.01l-3.64-11.25L36.04,284.67z M30.76,293.41h0.02l3.64,11.25l-7.03-5.11l-2.34,1.7l0.89-2.76l-7.02-5.1L30.76,293.41 L30.76,293.41z M27.38,302.76l8.38,6.09l3.2,9.86l-3.7,2.69H18.5l5.18-15.95L27.38,302.76z M31.7,323.99l-0.58,0.41l-10.79,7.84 l-2.17-1.58L16,329.09l1.66-5.1H31.7z M34.82,324.93l1.29-0.93h4.58l3.2,9.85h0.06l-3.19,9.8h-4.58l-0.96-0.7l-12.53-9.11h-0.14 L34.82,324.93z M20.41,335.39l11.15,8.11l0.21,0.15H17.73l-1.66-5.1l2.17-1.58L20.41,335.39z M35.34,346.24l3.7,2.69l-3.2,9.86 l-8.38,6.09l-3.7-2.69l-0.27-0.81l-4.91-15.13H35.34z M26.01,369.13l-0.89-2.75l2.34,1.7l7.02-5.1l-3.66,11.27H30.8l0,0.01 l-11.82-0.02L26.01,369.13z M32.68,376.85h0.02l0-0.01l11.82,0.02l-7.03,5.11l0.9,2.75l-2.34-1.7l-7.02,5.1L32.68,376.85z M36.04,386.23l3.7,2.69l3.8,11.71l1.38,4.24H28.15l-3.7-2.69l3.2-9.86L36.04,386.23z M28.15,429.75h16.77l-5.18,15.95l-3.7,2.69 l-8.38-6.09l-3.2-9.86L28.15,429.75z M40.53,451.65l1.41-4.35l13.56-9.86l5.18,15.95l-1.41,4.35H48.91L40.53,451.65z M61.16,460.34 l0.89-2.75l0.89,2.75h8.68l-9.6,6.97l-9.56-6.97H61.16z M64.83,457.75l-1.41-4.35l0.81-2.49l4.37-13.45l13.56,9.86l1.41,4.35 l-8.38,6.09H64.83z M88.07,448.39l-3.7-2.69l-0.27-0.81l-4.92-15.14h16.77l3.7,2.69l-3.2,9.86L88.07,448.39z M95.95,404.86H79.18 l5.18-15.95l3.7-2.69l8.38,6.09l3.2,9.86L95.95,404.86z M88.07,383.02l-2.34,1.7l0.89-2.75l-7.02-5.1h11.85v0h0.02l3.64,11.26 L88.07,383.02z M93.33,374.28l-3.64-11.26l7.03,5.11l2.34-1.7l-0.89,2.75l7.02,5.1H93.35v0H93.33z M96.73,364.93l-8.38-6.09 l-3.2-9.86l3.7-2.69h16.77l-5.18,15.95L96.73,364.93z M92.41,343.7l2.28-1.66l9.07-6.59l2.17,1.58l2.17,1.58l-1.65,5.1H92.41z M90.91,341.59L88,343.7h-4.58l-3.2-9.86h-0.06l3.18-9.8h4.58l6.84,4.97l6.65,4.83h0.15L90.91,341.59z M103.7,332.3l-5.44-3.96 l-5.92-4.3h14.05l0.83,2.55l0.83,2.55l-2.17,1.58L103.7,332.3z M88.77,321.45l-3.7-2.69l3.2-9.86l8.39-6.09l3.7,2.69l3.81,11.71 l1.37,4.24H88.77z M98.99,301.32l-2.34-1.7l-7.02,5.1l3.67-11.28h0.01l0-0.01l11.82,0.02l-7.03,5.11L98.99,301.32z M91.43,290.84 h-0.01l0,0.01l-11.82-0.02l7.03-5.11l-0.89-2.75l2.34,1.7l7.02-5.1L91.43,290.84z M88.07,281.47l-3.7-2.69l-0.27-0.81l-4.92-15.13 h16.77l3.7,2.69l-3.2,9.86L88.07,281.47z M95.95,237.94H79.18l5.18-15.95l3.7-2.69l8.38,6.09l3.2,9.85L95.95,237.94z M88.07,216.1 l-2.34,1.7l0.89-2.75l-7.02-5.1h11.85v0h0.02l3.64,11.26L88.07,216.1z M93.33,207.36l-3.64-11.26l7.03,5.11l2.34-1.7l-0.89,2.75 l7.02,5.1H93.35v0H93.33z M96.73,198.01l-8.38-6.09l-3.2-9.86l3.7-2.69h16.77l-5.18,15.95L96.73,198.01z M92.41,176.78l2.28-1.66 l9.07-6.59l2.17,1.58l2.17,1.58l-1.65,5.1H92.41z M90.91,174.67L88,176.78h-4.58l-3.2-9.86h-0.06l3.18-9.8h4.58l6.84,4.97l6.65,4.83 h0.15L90.91,174.67z M103.7,165.38l-5.44-3.96l-5.92-4.3h14.05l0.83,2.55l0.83,2.55l-2.17,1.58L103.7,165.38z M88.77,154.53 l-3.7-2.69l3.2-9.85l8.39-6.09l3.7,2.69l3.81,11.71l1.37,4.24H88.77z M98.99,134.39l-2.34-1.7l-7.02,5.1l3.67-11.28h0.01l0-0.01 l11.82,0.02l-7.03,5.11L98.99,134.39z M120.25,75.74V91.2l-8.44,6.14l-4.51-13.87l0,0l0,0l4.52-13.83L120.25,75.74z M120.51,51.6 l-7.23,5.24l-2.82,8.61l-11.8-8.58l-4.48-13.84h14.57L120.51,51.6z M118.7,12.44l1.84,1.34l-1.49,1.08l-1.49,1.08l-0.57-1.75 l-0.57-1.75H118.7z M116.2,20.14l5.18,15.95l-1.41,4.35H109.6l-8.38-6.09l1.41-4.35L116.2,20.14z M110.31,6.36l1.84,1.34l0.7,2.16 h-3.68L110.31,6.36z M113.7,12.44l0.83,2.55l0.83,2.55l-11.37,8.25l4.34-13.36H113.7z M94.69,8.19l9.07-6.59l2.17,1.58l2.17,1.58 l-1.65,5.1H92.41L94.69,8.19z M88.84,12.44h16.77l-5.18,15.95l-3.7,2.69l-8.38-6.09l-3.2-9.86L88.84,12.44z M78.85,4.18l2.69,8.27 h2.9l-2.34,1.7l2.68,8.25l-9.6-6.97L78.85,4.18z M74.32,18l11.82,8.59l4.47,13.84H76.04l-11.77-8.58l7.34-5.34L74.32,18z M62.05,9.17l10.05,7.23l-2.71,8.51l-7.33,5.34l-7.33-5.34l-2.71-8.5L62.05,9.17z M52.53,26.51l7.35,5.35l-11.8,8.58l-14.54-0.02 l4.5-13.86l0,0h0l11.77-8.53L52.53,26.51z M39.74,12.4h2.9l2.68-8.25l3.67,11.28l-9.59,6.94l2.68-8.26L39.74,12.4z M35.34,12.4 l3.7,2.69l-3.2,9.86l-8.38,6.09l-3.7-2.69l-0.27-0.81L18.57,12.4H35.34z M18.24,3.13l2.17-1.58l11.15,8.11l0.21,0.15H17.73 l-1.66-5.1L18.24,3.13z M12.03,7.64l1.84-1.34l1.14,3.5h0h-3.68L12.03,7.64z M9.65,14.95l0.83-2.55h5.36l4.34,13.36L8.82,17.5 L9.65,14.95z M5.13,14.81l-1.49-1.08l1.84-1.34h2.28l-0.57,1.75L6.62,15.9L5.13,14.81z M4.22,40.39L2.8,36.03l0.81-2.49l4.37-13.45 l13.57,9.86l1.41,4.35l-8.38,6.09L4.22,40.39z M10.83,56.81L3.6,51.56l11.82-8.59h0h0L29.96,43l-4.51,13.86l-11.79,8.54L10.83,56.81 z M3.76,91.1V75.79l8.54-6.19l4.5,13.86l-4.52,13.83L3.76,91.1z M3.56,115.3l7.24-5.25l2.84-8.58l11.81,8.58l4.47,13.84H15.35 L3.56,115.3z M5.41,154.48l-1.84-1.34l1.49-1.08l1.49-1.08l0.57,1.75l0.57,1.75H5.41z M7.91,146.78l-5.18-15.95l1.42-4.35H14.5 l8.39,6.09l-1.42,4.35L7.91,146.78z M9.58,151.93l-0.83-2.55l8.59-6.24l2.78-2.02l-4.34,13.36H10.4L9.58,151.93z M11.95,159.23 l-0.7-2.16h3.68l-1.14,3.5L11.95,159.23z M15.15,164.76l1.49,1.08l1.49,1.08h0.01l-1.42,1.03l-1.49,1.08l-0.69-2.11h-0.09 L15.15,164.76z M12.03,174.56l1.84-1.34l1.14,3.5h0h-3.68L12.03,174.56z M9.65,181.87l0.83-2.55h5.36l4.34,13.36l-11.36-8.25 L9.65,181.87z M5.13,181.74l-1.49-1.08l1.84-1.34h2.28l-0.57,1.75l-0.57,1.75L5.13,181.74z M4.22,207.31l-1.42-4.35l0.81-2.49 l4.37-13.45l13.57,9.86l1.41,4.35l-8.38,6.09L4.22,207.31z M10.83,223.73l-7.24-5.24l11.82-8.59h0h0l14.54,0.02l-4.51,13.87 l-11.79,8.54L10.83,223.73z M3.76,258.02v-15.3l8.54-6.19l4.5,13.86l-4.52,13.83L3.76,258.02z M3.56,282.22l7.24-5.25l2.84-8.58 l11.81,8.58l4.47,13.84H15.35L3.56,282.22z M5.41,321.4l-1.84-1.34l1.49-1.08l1.49-1.08l0.57,1.75l0.57,1.75H5.41z M7.91,313.71 l-5.18-15.95l1.42-4.35H14.5l8.39,6.09l-1.42,4.35L7.91,313.71z M9.58,318.85l-0.83-2.55l8.59-6.24l2.78-2.02l-4.34,13.36H10.4 L9.58,318.85z M11.95,326.15l-0.7-2.16h3.68l-1.14,3.5L11.95,326.15z M15.15,331.68l1.49,1.08l1.49,1.08h0.01l-1.42,1.03l-1.49,1.08 l-0.69-2.11h-0.09L15.15,331.68z M12.03,341.49l1.84-1.34l1.14,3.5h0h-3.68L12.03,341.49z M9.65,348.79l0.83-2.55h5.36l4.34,13.36 l-11.36-8.26L9.65,348.79z M5.13,348.66l-1.49-1.08l1.84-1.34h2.28l-0.57,1.75l-0.57,1.75L5.13,348.66z M4.22,374.23l-1.42-4.35 l0.81-2.5l4.37-13.45l13.57,9.86l1.41,4.36l-8.38,6.09H4.22z M10.83,390.65l-7.24-5.24l11.82-8.59h0h0l14.54,0.03l-4.51,13.86 l-11.79,8.54L10.83,390.65z M3.76,424.94v-15.3l8.54-6.19l4.5,13.86l-4.52,13.83L3.76,424.94z M3.56,449.15l7.24-5.25l2.84-8.58 l11.81,8.58l4.47,13.84H15.35L3.56,449.15z M5.41,488.32l-1.84-1.34l1.49-1.08l1.49-1.08l0.57,1.75l0.57,1.75H5.41z M7.91,480.63 l-5.18-15.95l1.42-4.35H14.5l8.39,6.09l-1.42,4.36L7.91,480.63z M13.79,494.41l-1.84-1.34l-0.7-2.16h3.68L13.79,494.41z M10.4,488.32l-0.83-2.55l-0.83-2.55l8.59-6.24l2.78-2.02l-4.34,13.36H10.4z M31.12,491.33l-10.79,7.84l-2.17-1.58L16,496.01 l1.66-5.1H31.7L31.12,491.33z M35.26,488.32H18.5l5.18-15.95l3.7-2.69l8.38,6.09l3.2,9.86L35.26,488.32z M45.25,496.59l-2.68-8.27 h-2.9l2.34-1.7l-2.68-8.26l9.6,6.97L45.25,496.59z M49.81,482.78l-11.84-8.6l-4.47-13.84h14.57l11.79,8.59l-7.33,5.33L49.81,482.78z M72.08,484.38l-10.03,7.21l-10.03-7.24l2.71-8.49l7.33-5.33l7.33,5.33l2.7,8.48l-0.03,0.02L72.08,484.38z M71.61,474.26l-7.37-5.36 l11.79-8.57h0l14.54,0.03l-4.51,13.87l-11.76,8.51L71.61,474.26z M84.36,488.38h-2.89l-2.68,8.26l-3.67-11.28l9.59-6.94l-2.68,8.27 L84.36,488.38z M85.07,485.69l3.2-9.86l8.39-6.09l3.7,2.69l3.81,11.71l1.37,4.24H88.77L85.07,485.69z M105.87,497.64l-2.17,1.58 l-5.44-3.96l-5.92-4.3h14.05l0.83,2.55l0.83,2.55L105.87,497.64z M112.08,493.13l-1.84,1.34l-0.57-1.75l-0.57-1.75h3.68 L112.08,493.13z M113.63,488.38h-5.37l-1-3.09l-3.34-10.27l1.9,1.38l9.46,6.88L113.63,488.38z M118.98,485.96l1.49,1.08l-1.84,1.34 h-2.28l1.13-3.5L118.98,485.96z M119.89,460.38l1.41,4.36l-5.18,15.95l-13.57-9.86l-1.41-4.35l8.38-6.09H119.89z M113.29,443.95 l7.23,5.24l-11.83,8.6l-14.54-0.02l4.5-13.87v0h0.01l11.79-8.54L113.29,443.95z M120.25,409.59v15.46l-8.44,6.13l-4.51-13.87l0,0h0 l4.52-13.83L120.25,409.59z M120.51,385.44l-7.23,5.24l-2.82,8.61l-11.8-8.58l-4.48-13.85h14.57L120.51,385.44z M118.7,346.29 l1.84,1.34l-1.49,1.08l-1.49,1.08l-0.57-1.75l-0.57-1.75H118.7z M116.2,353.98l5.18,15.94l-1.41,4.36H109.6l-8.38-6.09l1.41-4.35 L116.2,353.98z M114.53,348.84l0.83,2.55l-11.37,8.26l4.34-13.36h5.37L114.53,348.84z M112.16,341.54l0.7,2.16h-3.68l1.14-3.5 L112.16,341.54z M108.95,336.01l-1.49-1.08l-1.49-1.08h0l1.41-1.03l1.49-1.08l0.69,2.11h0.09L108.95,336.01z M112.08,326.21 l-1.84,1.34l-0.57-1.75l-0.57-1.75h3.68L112.08,326.21z M113.63,321.45h-5.37l-1-3.09l-3.34-10.27l1.9,1.38l9.46,6.88L113.63,321.45 z M118.98,319.03l1.49,1.08l-1.84,1.34h-2.28l1.13-3.5L118.98,319.03z M119.89,293.46l1.41,4.35l-5.18,15.95l-13.57-9.86l-1.41-4.35 l8.38-6.09H119.89z M113.29,277.03l7.23,5.24l-11.83,8.6l-14.54-0.02l4.5-13.86v-0.01h0.01l11.79-8.54L113.29,277.03z M120.25,242.67v15.46l-8.44,6.13l-4.51-13.87l0,0l0,0l4.52-13.83L120.25,242.67z M120.51,218.52l-7.23,5.24l-2.82,8.61l-11.8-8.58 l-4.48-13.84h14.57L120.51,218.52z M118.7,179.37l1.84,1.34l-1.49,1.08l-1.49,1.08l-0.57-1.75l-0.57-1.75H118.7z M116.2,187.06 l5.18,15.95l-1.41,4.35l-10.36,0l-8.38-6.09l1.41-4.35L116.2,187.06z M114.53,181.92l0.83,2.55l-11.37,8.25l4.34-13.36h5.37 L114.53,181.92z M112.16,174.61l0.7,2.16h-3.68l1.14-3.5L112.16,174.61z M108.95,169.09l-1.49-1.08l-1.49-1.08h0l1.41-1.02 l1.49-1.08l0.69,2.11h0.09L108.95,169.09z M112.08,159.28l-1.84,1.34l-0.57-1.75l-0.57-1.75h3.68L112.08,159.28z M113.63,154.53 h-5.37l-1-3.09l-3.34-10.27l1.9,1.38l9.46,6.88L113.63,154.53z M118.98,152.11l1.49,1.08l-1.84,1.34h-2.28l1.13-3.5L118.98,152.11z M116.12,146.84l-13.57-9.86l-1.41-4.35l8.38-6.09h10.36l1.41,4.35L116.12,146.84z"/></g></svg>